<?xml version="1.0" standalone="no"?>
<!DOCTYPE svg PUBLIC "-//W3C//DTD SVG 20010904//EN"
 "http://www.w3.org/TR/2001/REC-SVG-20010904/DTD/svg10.dtd">
<svg version="1.0" xmlns="http://www.w3.org/2000/svg"
 width="1024.000000pt" height="1024.000000pt" viewBox="0 0 1024.000000 1024.000000"
 preserveAspectRatio="xMidYMid meet">

<g transform="translate(0.000000,1024.000000) scale(0.100000,-0.100000)"
fill="#000000" stroke="none">
<path d="M1737 8883 c-15 -14 -4 -35 49 -95 172 -192 283 -478 338 -868 8 -58
18 -121 22 -140 3 -19 10 -960 14 -2090 5 -1462 10 -2078 18 -2135 40 -276 67
-403 122 -575 103 -322 277 -638 514 -930 88 -109 376 -394 487 -483 53 -41
152 -112 220 -157 125 -82 411 -231 504 -263 174 -61 260 -87 321 -100 38 -9
101 -23 139 -32 202 -47 331 -59 630 -59 372 -1 430 6 835 106 114 28 277 87
396 142 53 26 97 46 99 46 9 0 226 126 299 175 358 235 709 606 941 994 72
121 163 306 210 431 69 181 130 420 155 610 6 46 14 89 17 94 4 5 5 916 4
2025 -1 1416 1 2052 9 2136 46 495 169 855 365 1073 97 107 195 97 -950 100
-550 1 -1010 0 -1022 -3 -30 -7 -29 -36 2 -65 74 -70 200 -271 243 -390 46
-125 90 -285 113 -415 41 -226 42 -243 46 -977 4 -666 3 -718 -13 -718 -9 0
-46 22 -83 48 -298 217 -735 398 -1101 456 -205 33 -291 39 -555 40 -355 0
-481 -14 -770 -89 -129 -33 -184 -51 -335 -107 -181 -69 -512 -250 -590 -325
-20 -18 -44 -33 -53 -33 -16 0 -17 45 -17 675 0 538 3 704 15 813 52 466 163
776 354 987 63 70 72 89 45 99 -21 8 -2029 8 -2037 -1z m3693 -3237 c323 -53
617 -198 864 -426 292 -269 473 -584 558 -966 19 -85 22 -131 22 -324 1 -231
-4 -279 -46 -450 -134 -539 -554 -1012 -1078 -1213 -236 -91 -353 -111 -635
-111 -280 -1 -387 18 -635 112 -222 83 -388 192 -584 382 -229 223 -384 462
-464 720 -56 181 -74 307 -74 510 -1 317 61 589 184 820 246 458 636 783 1098
913 30 9 107 23 170 32 63 10 117 19 120 22 12 11 403 -5 500 -21z"/>
</g>
</svg>
