<?xml version="1.0" standalone="no"?>
<!DOCTYPE svg PUBLIC "-//W3C//DTD SVG 20010904//EN"
 "http://www.w3.org/TR/2001/REC-SVG-20010904/DTD/svg10.dtd">
<svg version="1.0" xmlns="http://www.w3.org/2000/svg"
 width="32.000000pt" height="32.000000pt" viewBox="0 0 32.000000 32.000000"
 preserveAspectRatio="xMidYMid meet">

<g transform="translate(0.000000,32.000000) scale(0.100000,-0.100000)"
fill="#000000" stroke="none">
<path d="M65 262 c3 -8 5 -49 5 -92 0 -69 3 -82 24 -107 31 -36 95 -39 128 -5
20 19 24 36 28 117 5 90 4 94 -16 98 -20 3 -21 0 -17 -32 l5 -36 -62 0 -62 0
5 35 c4 32 2 35 -19 35 -16 0 -22 -5 -19 -13z m136 -103 c26 -26 21 -57 -13
-82 l-28 -21 -27 21 c-35 25 -40 56 -14 82 27 27 55 27 82 0z"/>
</g>
</svg>
